HIERARCHY
ROOT mixamorig:Hips
{
	OFFSET 0.000000 104.274902 0.000000
	CHANNELS 6 Xposition Yposition Zposition Xrotation Yrotation Zrotation
	JOINT mixamorig:Spine
	{
		OFFSET 0.000000 10.181549 0.131524
		CHANNELS 6 Xposition Yposition Zposition Xrotation Yrotation Zrotation
		JOINT mixamorig:Spine1
		{
			OFFSET 0.000000 9.893990 -1.470706
			CHANNELS 3 Xrotation Yrotation Zrotation
			JOINT mixamorig:Spine2
			{
				OFFSET 0.000000 9.220787 -1.370637
				CHANNELS 3 Xrotation Yrotation Zrotation
				JOINT mixamorig:Neck
				{
					OFFSET 0.000000 16.740372 -2.049022
					CHANNELS 6 Xposition Yposition Zposition Xrotation Yrotation Zrotation
					JOINT mixamorig:Head
					{
						OFFSET 0.000000 9.617859 1.684976
						CHANNELS 6 Xposition Yposition Zposition Xrotation Yrotation Zrotation
						JOINT mixamorig:HeadTop_End
						{
							OFFSET 0.000000 22.037384 7.501072
							CHANNELS 6 Xposition Yposition Zposition Xrotation Yrotation Zrotation
							End Site
							{
								OFFSET 0.000000 23.106567 -2.828246
							}
						}
					}
				}
				JOINT mixamorig:RightShoulder
				{
					OFFSET -4.570000 11.014877 -2.160840
					CHANNELS 6 Xposition Yposition Zposition Xrotation Yrotation Zrotation
					JOINT mixamorig:RightArm
					{
						OFFSET -10.592867 -0.524796 -2.232105
						CHANNELS 3 Xrotation Yrotation Zrotation
						JOINT mixamorig:RightForeArm
						{
							OFFSET -27.841497 0.000000 -0.000002
							CHANNELS 3 Xrotation Yrotation Zrotation
							JOINT mixamorig:RightHand
							{
								OFFSET -28.328812 0.000000 -0.000001
								CHANNELS 3 Xrotation Yrotation Zrotation
								JOINT mixamorig:RightHandThumb1
								{
									OFFSET -2.464798 -1.573990 2.681911
									CHANNELS 6 Xposition Yposition Zposition Xrotation Yrotation Zrotation
									JOINT mixamorig:RightHandThumb2
									{
										OFFSET -3.244781 -1.873383 1.873376
										CHANNELS 3 Xrotation Yrotation Zrotation
										JOINT mixamorig:RightHandThumb3
										{
											OFFSET -2.646263 -1.527817 1.527818
											CHANNELS 6 Xposition Yposition Zposition Xrotation Yrotation Zrotation
											JOINT mixamorig:RightHandThumb4
											{
												OFFSET -1.994591 -1.151581 1.151575
												CHANNELS 6 Xposition Yposition Zposition Xrotation Yrotation Zrotation
												End Site
												{
													OFFSET -1.860176 -1.142715 1.365483
												}
											}
										}
									}
								}
								JOINT mixamorig:RightHandIndex1
								{
									OFFSET -9.108299 -0.517883 2.259803
									CHANNELS 6 Xposition Yposition Zposition Xrotation Yrotation Zrotation
									JOINT mixamorig:RightHandIndex2
									{
										OFFSET -3.699997 0.000000 0.000000
										CHANNELS 3 Xrotation Yrotation Zrotation
										JOINT mixamorig:RightHandIndex3
										{
											OFFSET -2.850006 0.000000 0.000000
											CHANNELS 3 Xrotation Yrotation Zrotation
											JOINT mixamorig:RightHandIndex4
											{
												OFFSET -2.772194 0.000000 0.000000
												CHANNELS 3 Xrotation Yrotation Zrotation
												End Site
												{
													OFFSET -2.772202 0.000000 -0.000484
												}
											}
										}
									}
								}
								JOINT mixamorig:RightHandMiddle1
								{
									OFFSET -9.532501 0.000000 -0.000000
									CHANNELS 6 Xposition Yposition Zposition Xrotation Yrotation Zrotation
									JOINT mixamorig:RightHandMiddle2
									{
										OFFSET -3.699997 0.000000 0.000000
										CHANNELS 3 Xrotation Yrotation Zrotation
										JOINT mixamorig:RightHandMiddle3
										{
											OFFSET -2.949997 0.000000 0.000000
											CHANNELS 3 Xrotation Yrotation Zrotation
											JOINT mixamorig:RightHandMiddle4
											{
												OFFSET -2.946594 0.000000 0.000000
												CHANNELS 3 Xrotation Yrotation Zrotation
												End Site
												{
													OFFSET -2.946602 0.000000 -0.000982
												}
											}
										}
									}
								}
								JOINT mixamorig:RightHandRing1
								{
									OFFSET -9.103600 -0.043106 -1.865100
									CHANNELS 6 Xposition Yposition Zposition Xrotation Yrotation Zrotation
									JOINT mixamorig:RightHandRing2
									{
										OFFSET -3.379303 0.000000 0.000000
										CHANNELS 3 Xrotation Yrotation Zrotation
										JOINT mixamorig:RightHandRing3
										{
											OFFSET -2.889694 0.000000 0.000000
											CHANNELS 3 Xrotation Yrotation Zrotation
											JOINT mixamorig:RightHandRing4
											{
												OFFSET -2.638802 0.000000 0.000000
												CHANNELS 3 Xrotation Yrotation Zrotation
												End Site
												{
													OFFSET -2.638802 0.000000 0.004218
												}
											}
										}
									}
								}
								JOINT mixamorig:RightHandPinky1
								{
									OFFSET -8.076698 -0.486725 -3.806299
									CHANNELS 6 Xposition Yposition Zposition Xrotation Yrotation Zrotation
									JOINT mixamorig:RightHandPinky2
									{
										OFFSET -3.600006 0.000000 0.000000
										CHANNELS 3 Xrotation Yrotation Zrotation
										JOINT mixamorig:RightHandPinky3
										{
											OFFSET -2.099998 0.000000 0.000000
											CHANNELS 3 Xrotation Yrotation Zrotation
											JOINT mixamorig:RightHandPinky4
											{
												OFFSET -2.115791 0.000000 0.000000
												CHANNELS 3 Xrotation Yrotation Zrotation
												End Site
												{
													OFFSET -2.115799 0.000000 0.000174
												}
											}
										}
									}
								}
							}
						}
					}
				}
				JOINT mixamorig:LeftShoulder
				{
					OFFSET 4.570400 11.014679 -2.160816
					CHANNELS 6 Xposition Yposition Zposition Xrotation Yrotation Zrotation
					JOINT mixamorig:LeftArm
					{
						OFFSET 10.592373 -0.524597 -2.232116
						CHANNELS 3 Xrotation Yrotation Zrotation
						JOINT mixamorig:LeftForeArm
						{
							OFFSET 27.841488 0.000000 0.000001
							CHANNELS 3 Xrotation Yrotation Zrotation
							JOINT mixamorig:LeftHand
							{
								OFFSET 28.328808 0.000000 -0.000000
								CHANNELS 3 Xrotation Yrotation Zrotation
								JOINT mixamorig:LeftHandThumb1
								{
									OFFSET 2.466103 -1.576202 2.681698
									CHANNELS 6 Xposition Yposition Zposition Xrotation Yrotation Zrotation
									JOINT mixamorig:LeftHandThumb2
									{
										OFFSET 3.243317 -1.872528 1.872530
										CHANNELS 3 Xrotation Yrotation Zrotation
										JOINT mixamorig:LeftHandThumb3
										{
											OFFSET 2.647881 -1.528763 1.528754
											CHANNELS 6 Xposition Yposition Zposition Xrotation Yrotation Zrotation
											JOINT mixamorig:LeftHandThumb4
											{
												OFFSET 1.998924 -1.154083 1.154080
												CHANNELS 6 Xposition Yposition Zposition Xrotation Yrotation Zrotation
												End Site
												{
													OFFSET 1.884041 -1.149155 1.337651
												}
											}
										}
									}
								}
								JOINT mixamorig:LeftHandIndex1
								{
									OFFSET 9.109299 -0.518005 2.259900
									CHANNELS 6 Xposition Yposition Zposition Xrotation Yrotation Zrotation
									JOINT mixamorig:LeftHandIndex2
									{
										OFFSET 3.699997 0.000000 0.000000
										CHANNELS 3 Xrotation Yrotation Zrotation
										JOINT mixamorig:LeftHandIndex3
										{
											OFFSET 2.850006 0.000000 0.000000
											CHANNELS 3 Xrotation Yrotation Zrotation
											JOINT mixamorig:LeftHandIndex4
											{
												OFFSET 2.774895 0.000000 0.000000
												CHANNELS 3 Xrotation Yrotation Zrotation
												End Site
												{
													OFFSET 2.774902 0.000000 -0.000072
												}
											}
										}
									}
								}
								JOINT mixamorig:LeftHandMiddle1
								{
									OFFSET 9.533401 0.000000 0.000000
									CHANNELS 6 Xposition Yposition Zposition Xrotation Yrotation Zrotation
									JOINT mixamorig:LeftHandMiddle2
									{
										OFFSET 3.699997 0.000000 0.000000
										CHANNELS 3 Xrotation Yrotation Zrotation
										JOINT mixamorig:LeftHandMiddle3
										{
											OFFSET 2.949997 0.000000 0.000000
											CHANNELS 3 Xrotation Yrotation Zrotation
											JOINT mixamorig:LeftHandMiddle4
											{
												OFFSET 2.952896 0.000000 0.000000
												CHANNELS 3 Xrotation Yrotation Zrotation
												End Site
												{
													OFFSET 2.952904 0.000000 0.000165
												}
											}
										}
									}
								}
								JOINT mixamorig:LeftHandRing1
								{
									OFFSET 9.104500 -0.042999 -1.865101
									CHANNELS 6 Xposition Yposition Zposition Xrotation Yrotation Zrotation
									JOINT mixamorig:LeftHandRing2
									{
										OFFSET 3.149994 0.000000 0.000000
										CHANNELS 3 Xrotation Yrotation Zrotation
										JOINT mixamorig:LeftHandRing3
										{
											OFFSET 2.950005 0.000000 0.000000
											CHANNELS 3 Xrotation Yrotation Zrotation
											JOINT mixamorig:LeftHandRing4
											{
												OFFSET 2.644302 0.000000 0.000000
												CHANNELS 3 Xrotation Yrotation Zrotation
												End Site
												{
													OFFSET 2.644302 0.000000 0.000083
												}
											}
										}
									}
								}
								JOINT mixamorig:LeftHandPinky1
								{
									OFFSET 8.077805 -0.486893 -3.806302
									CHANNELS 6 Xposition Yposition Zposition Xrotation Yrotation Zrotation
									JOINT mixamorig:LeftHandPinky2
									{
										OFFSET 3.600006 0.000000 0.000000
										CHANNELS 3 Xrotation Yrotation Zrotation
										JOINT mixamorig:LeftHandPinky3
										{
											OFFSET 2.099998 0.000000 0.000000
											CHANNELS 3 Xrotation Yrotation Zrotation
											JOINT mixamorig:LeftHandPinky4
											{
												OFFSET 2.125496 0.000000 0.000000
												CHANNELS 3 Xrotation Yrotation Zrotation
												End Site
												{
													OFFSET 2.125504 0.000000 -0.001254
												}
											}
										}
									}
								}
							}
						}
					}
				}
			}
		}
	}
	JOINT mixamorig:RightUpLeg
	{
		OFFSET -8.207800 -6.751701 -1.599544
		CHANNELS 6 Xposition Yposition Zposition Xrotation Yrotation Zrotation
		JOINT mixamorig:RightLeg
		{
			OFFSET 0.000004 -44.370152 0.345934
			CHANNELS 3 Xrotation Yrotation Zrotation
			JOINT mixamorig:RightFoot
			{
				OFFSET 0.000004 -44.423664 -3.043535
				CHANNELS 3 Xrotation Yrotation Zrotation
				JOINT mixamorig:RightToeBase
				{
					OFFSET 0.000001 -8.728691 10.710592
					CHANNELS 3 Xrotation Yrotation Zrotation
					JOINT mixamorig:RightToe_End
					{
						OFFSET 0.000000 -0.000665 9.278101
						CHANNELS 3 Xrotation Yrotation Zrotation
						End Site
						{
							OFFSET 0.000000 -0.000665 9.278103
						}
					}
				}
			}
		}
	}
	JOINT mixamorig:LeftUpLeg
	{
		OFFSET 8.207800 -6.751701 -1.599544
		CHANNELS 6 Xposition Yposition Zposition Xrotation Yrotation Zrotation
		JOINT mixamorig:LeftLeg
		{
			OFFSET 0.000004 -44.370037 0.346940
			CHANNELS 3 Xrotation Yrotation Zrotation
			JOINT mixamorig:LeftFoot
			{
				OFFSET 0.000004 -44.423611 -3.044388
				CHANNELS 3 Xrotation Yrotation Zrotation
				JOINT mixamorig:LeftToeBase
				{
					OFFSET 0.000001 -8.728690 10.710592
					CHANNELS 3 Xrotation Yrotation Zrotation
					JOINT mixamorig:LeftToe_End
					{
						OFFSET 0.000000 -0.000680 9.278101
						CHANNELS 3 Xrotation Yrotation Zrotation
						End Site
						{
							OFFSET 0.000000 -0.000680 9.278101
						}
					}
				}
			}
		}
	}
}
MOTION
Frames: 4
Frame Time: 0.033333
0.037289 100.906403 1.446761 -2.525537 8.296188 -2.821311 -0.000000 10.181576 0.131524 1.490885 -0.589285 2.323434 1.152518 0.083406 3.580707 1.156041 0.189547 3.556562 0.000003 16.740395 -2.049022 6.946929 -2.632266 3.914790 -0.000005 9.617833 1.684980 -13.402597 -3.889032 -3.723163 -0.000002 22.037384 7.501074 -0.000000 0.000000 0.000000 -4.570002 11.014893 -2.160841 4.808960 -0.835187 5.562637 8.740137 9.094086 57.948589 -0.000015 21.211197 0.000033 -1.755962 0.489995 18.944722 -2.464803 -1.573997 2.681907 -6.901971 8.181165 -4.018448 7.464498 -23.792703 -2.837941 -2.646259 -1.527813 1.527812 -4.037292 -18.149544 -17.326558 -1.994586 -1.151587 1.151572 0.000002 -0.000002 -0.000002 -9.108315 -0.517880 2.259803 -1.992645 5.229603 14.550682 0.223253 -1.426132 17.794931 0.069985 -0.805205 9.934764 0.000002 -0.000002 0.000001 -9.532516 0.000007 -0.000001 0.314670 -3.835304 19.453661 0.223264 -1.426128 17.794916 0.069970 -0.805200 9.934762 -0.000001 0.000001 -0.000001 -9.103619 -0.043104 -1.865103 2.703315 -9.946656 21.118614 0.223692 -1.427507 17.812778 0.070012 -0.805272 9.935482 0.000001 0.000000 0.000005 -8.076706 -0.486709 -3.806300 3.960643 -16.894483 24.893763 0.594439 -2.278646 29.239295 0.069992 -0.805210 9.934747 0.000001 0.000003 0.000001 4.570402 11.014704 -2.160816 -0.294444 -11.152522 -16.999395 12.144562 -7.745188 -53.124334 0.000002 -21.937526 0.000006 -21.418024 8.690695 -8.208490 2.466084 -1.576202 2.681699 -6.000613 -6.126730 4.616795 7.230321 21.960026 2.178834 2.647893 -1.528760 1.528757 -5.596056 12.091072 16.242905 1.998932 -1.154082 1.154083 -0.000000 0.000003 -0.000000 9.109291 -0.518021 2.259900 -2.034580 -4.751679 -15.395231 0.279823 1.790725 -17.763003 0.087696 1.011024 -9.916119 0.000000 -0.000000 -0.000001 9.533382 0.000003 -0.000001 0.422558 4.378010 -20.122302 0.279823 1.790724 -17.763022 0.087694 1.011015 -9.916114 0.000000 0.000000 -0.000002 9.104490 -0.042994 -1.865101 2.890000 10.489039 -21.682948 0.280382 1.792461 -17.780835 0.087696 1.011088 -9.916822 0.000000 -0.000000 -0.000002 8.077798 -0.486892 -3.806304 4.243192 17.490917 -25.349450 0.745259 2.861461 -29.192526 0.087689 1.011019 -9.916099 0.000000 0.000000 0.000001 -8.207800 -6.751690 -1.599543 -4.096741 -6.378820 7.408175 20.772774 -9.349721 3.855404 -14.920536 -3.597734 -6.378859 -2.803312 0.000003 -0.000002 -0.000000 -0.000000 -0.000000 8.207797 -6.751695 -1.599544 -7.637276 11.578569 17.312031 13.193117 -9.017560 5.566946 -7.962489 -5.053050 -16.720691 -2.160231 -0.000004 0.000005 -0.000000 0.000000 0.000000 
0.031631 100.905907 1.435392 -2.474303 8.280337 -2.880081 0.000000 10.181552 0.131523 1.438253 -0.602364 2.282883 1.158328 0.072174 3.538804 1.161557 0.178398 3.513697 -0.000001 16.740374 -2.049022 6.498856 -2.725891 4.252206 0.000001 9.617868 1.684974 -12.857566 -4.080648 -3.618634 -0.000001 22.037384 7.501072 -0.000000 -0.000000 0.000000 -4.570003 11.014853 -2.160840 4.832227 -0.851908 5.794455 8.696152 9.023443 57.823623 -0.000025 21.254490 0.000018 -1.895058 0.567578 18.998957 -2.464799 -1.573989 2.681913 -6.901972 8.181173 -4.018447 7.464495 -23.792704 -2.837946 -2.646263 -1.527807 1.527818 -4.037295 -18.149547 -17.326563 -1.994578 -1.151587 1.151576 0.000003 0.000000 -0.000002 -9.108296 -0.517880 2.259804 -1.992646 5.229603 14.550682 0.223249 -1.426131 17.794926 0.069986 -0.805206 9.934763 -0.000001 0.000003 0.000003 -9.532516 0.000007 0.000001 0.314668 -3.835303 19.453659 0.223264 -1.426127 17.794919 0.069971 -0.805200 9.934759 -0.000001 0.000001 0.000002 -9.103603 -0.043106 -1.865097 2.703315 -9.946656 21.118619 0.223690 -1.427507 17.812783 0.070010 -0.805270 9.935478 0.000003 -0.000001 0.000002 -8.076709 -0.486713 -3.806296 3.960642 -16.894485 24.893763 0.594438 -2.278647 29.239302 0.069991 -0.805211 9.934748 0.000002 -0.000003 -0.000001 4.570395 11.014674 -2.160816 -0.290765 -11.194707 -16.916381 12.312321 -7.660440 -53.086877 -0.000003 -22.196262 0.000005 -21.622091 8.763414 -8.026328 2.466093 -1.576189 2.681701 -6.000613 -6.126724 4.616798 7.230320 21.960028 2.178828 2.647889 -1.528755 1.528752 -5.596057 12.091075 16.242905 1.998918 -1.154084 1.154088 0.000001 0.000001 -0.000004 9.109287 -0.518021 2.259901 -2.034580 -4.751678 -15.395231 0.279823 1.790723 -17.763005 0.087696 1.011021 -9.916119 0.000000 -0.000000 -0.000000 9.533409 0.000005 0.000001 0.422558 4.378010 -20.122306 0.279823 1.790724 -17.763025 0.087694 1.011015 -9.916113 -0.000000 0.000000 -0.000002 9.104490 -0.042992 -1.865103 2.890000 10.489037 -21.682949 0.280382 1.792462 -17.780830 0.087696 1.011089 -9.916821 0.000000 -0.000000 -0.000002 8.077806 -0.486892 -3.806304 4.243192 17.490916 -25.349445 0.745258 2.861462 -29.192526 0.087688 1.011021 -9.916104 -0.000000 0.000000 -0.000000 -8.207799 -6.751700 -1.599543 -4.125158 -6.387127 7.452576 20.721628 -9.328797 3.882027 -14.885950 -3.591078 -6.408465 -2.798007 0.000001 0.000000 -0.000000 -0.000001 -0.000000 8.207799 -6.751699 -1.599544 -7.727422 11.559003 17.374294 13.237223 -9.001616 5.566448 -7.974011 -5.051870 -16.724960 -2.152419 0.000000 -0.000002 -0.000000 -0.000001 0.000000 
0.039058 100.907272 1.426135 -2.450917 8.238162 -2.922176 0.000001 10.181547 0.131523 1.406838 -0.620587 2.247826 1.176988 0.057927 3.504819 1.179906 0.164230 3.478737 0.000003 16.740374 -2.049020 6.019307 -2.807786 4.495477 -0.000001 9.617855 1.684978 -12.319120 -4.266864 -3.517001 0.000001 22.037369 7.501066 -0.000000 0.000000 -0.000000 -4.569999 11.014884 -2.160839 4.848362 -0.849884 5.973462 8.626345 9.016073 57.734196 -0.000008 21.336333 0.000031 -2.049912 0.649690 19.049030 -2.464799 -1.573990 2.681911 -6.901973 8.181169 -4.018447 7.464495 -23.792703 -2.837947 -2.646259 -1.527826 1.527809 -4.037292 -18.149546 -17.326558 -1.994586 -1.151586 1.151567 0.000002 -0.000000 -0.000002 -9.108289 -0.517882 2.259803 -1.992647 5.229605 14.550683 0.223249 -1.426132 17.794922 0.069986 -0.805206 9.934762 -0.000000 0.000002 0.000005 -9.532496 0.000007 0.000000 0.314667 -3.835304 19.453661 0.223268 -1.426128 17.794922 0.069973 -0.805201 9.934762 -0.000001 0.000000 0.000004 -9.103614 -0.043106 -1.865103 2.703315 -9.946656 21.118620 0.223693 -1.427506 17.812780 0.070007 -0.805271 9.935475 -0.000003 -0.000000 0.000004 -8.076694 -0.486722 -3.806296 3.960642 -16.894485 24.893767 0.594437 -2.278647 29.239299 0.069991 -0.805208 9.934752 -0.000000 -0.000000 0.000002 4.570403 11.014694 -2.160815 -0.288675 -11.226417 -16.860822 12.421434 -7.560823 -53.035104 -0.000010 -22.398910 0.000001 -21.812762 8.804943 -7.863493 2.466080 -1.576187 2.681703 -6.000615 -6.126727 4.616796 7.230320 21.960028 2.178831 2.647889 -1.528762 1.528763 -5.596053 12.091073 16.242910 1.998917 -1.154067 1.154083 0.000000 0.000003 -0.000000 9.109280 -0.518008 2.259899 -2.034580 -4.751679 -15.395231 0.279823 1.790723 -17.763007 0.087695 1.011023 -9.916121 -0.000000 -0.000000 0.000002 9.533386 0.000003 -0.000000 0.422558 4.378011 -20.122304 0.279823 1.790724 -17.763025 0.087694 1.011015 -9.916113 -0.000000 0.000000 0.000000 9.104486 -0.043003 -1.865102 2.890000 10.489038 -21.682949 0.280382 1.792461 -17.780835 0.087696 1.011088 -9.916817 0.000001 -0.000000 -0.000005 8.077790 -0.486892 -3.806299 4.243192 17.490916 -25.349448 0.745259 2.861461 -29.192519 0.087689 1.011020 -9.916104 0.000001 0.000000 -0.000004 -8.207801 -6.751728 -1.599544 -4.132227 -6.391377 7.478026 20.686179 -9.308198 3.894311 -14.857294 -3.563248 -6.417110 -2.792856 -0.000004 -0.000000 -0.000000 0.000000 0.000000 8.207800 -6.751705 -1.599543 -7.771814 11.548994 17.410526 13.282496 -8.991756 5.569914 -7.992074 -5.018574 -16.719159 -2.145487 0.000002 -0.000006 0.000000 -0.000000 0.000000 
0.056626 100.907661 1.402247 -2.451216 8.178956 -2.947150 -0.000000 10.181556 0.131522 1.399938 -0.644994 2.224427 1.216119 0.039877 3.483284 1.218721 0.146149 3.456062 0.000000 16.740364 -2.049019 5.481520 -2.869777 4.623087 -0.000004 9.617815 1.684983 -11.782495 -4.420799 -3.422659 -0.000001 22.037369 7.501076 -0.000001 0.000000 -0.000000 -4.570002 11.014877 -2.160837 4.854025 -0.826252 6.068308 8.518976 9.046604 57.712988 -0.000005 21.457681 0.000004 -2.220464 0.730674 19.099214 -2.464792 -1.573989 2.681905 -6.901971 8.181171 -4.018449 7.464491 -23.792701 -2.837943 -2.646263 -1.527823 1.527811 -4.037292 -18.149546 -17.326563 -1.994579 -1.151583 1.151572 0.000001 0.000001 0.000001 -9.108296 -0.517882 2.259802 -1.992648 5.229603 14.550680 0.223250 -1.426134 17.794924 0.069987 -0.805206 9.934763 -0.000002 0.000002 0.000005 -9.532500 0.000007 -0.000003 0.314665 -3.835305 19.453659 0.223269 -1.426128 17.794921 0.069974 -0.805201 9.934759 -0.000002 0.000000 0.000001 -9.103592 -0.043104 -1.865101 2.703316 -9.946656 21.118615 0.223695 -1.427506 17.812782 0.070011 -0.805270 9.935478 0.000001 -0.000001 -0.000001 -8.076697 -0.486707 -3.806299 3.960642 -16.894485 24.893765 0.594436 -2.278645 29.239299 0.069993 -0.805209 9.934753 0.000001 0.000003 -0.000000 4.570403 11.014687 -2.160813 -0.287668 -11.244689 -16.830565 12.489534 -7.478987 -52.978523 0.000016 -22.553032 0.000008 -21.982542 8.803000 -7.726518 2.466095 -1.576191 2.681699 -6.000612 -6.126728 4.616797 7.230320 21.960028 2.178833 2.647901 -1.528762 1.528751 -5.596054 12.091077 16.242909 1.998917 -1.154067 1.154079 0.000000 0.000005 -0.000000 9.109280 -0.518023 2.259897 -2.034581 -4.751679 -15.395233 0.279823 1.790721 -17.763005 0.087696 1.011022 -9.916122 -0.000000 0.000000 -0.000003 9.533398 -0.000013 -0.000003 0.422558 4.378010 -20.122304 0.279823 1.790724 -17.763022 0.087694 1.011015 -9.916111 -0.000000 -0.000000 -0.000001 9.104502 -0.042994 -1.865104 2.890000 10.489038 -21.682949 0.280382 1.792461 -17.780837 0.087696 1.011088 -9.916819 0.000000 -0.000001 0.000000 8.077790 -0.486892 -3.806305 4.243193 17.490916 -25.349448 0.745259 2.861460 -29.192522 0.087689 1.011019 -9.916106 0.000000 -0.000000 -0.000003 -8.207800 -6.751696 -1.599543 -4.145888 -6.395425 7.484123 20.690627 -9.284450 3.891971 -14.836926 -3.526527 -6.408347 -2.788230 -0.000003 0.000000 -0.000000 0.000000 0.000000 8.207798 -6.751696 -1.599544 -7.801253 11.535970 17.422366 13.357199 -8.980273 5.578581 -8.018879 -4.965174 -16.703462 -2.139701 0.000001 -0.000007 0.000000 -0.000001 0.000000 
